<svg width="32" height="35" viewBox="0 0 32 35" fill="none" xmlns="http://www.w3.org/2000/svg">
<path d="M18.312 31.0272C21.798 27.7547 28 21.0688 28 14.9333C28 11.5386 26.7357 8.28283 24.4853 5.88236C22.2348 3.4819 19.1826 2.13333 16 2.13333C12.8174 2.13333 9.76516 3.4819 7.51472 5.88236C5.26428 8.28283 4 11.5386 4 14.9333C4 21.0688 10.2 27.7547 13.688 31.0272C14.3242 31.6329 15.1472 31.9677 16 31.9677C16.8528 31.9677 17.6758 31.6329 18.312 31.0272V31.0272ZM12 14.9333C12 13.8017 12.4214 12.7165 13.1716 11.9163C13.9217 11.1162 14.9391 10.6667 16 10.6667C17.0609 10.6667 18.0783 11.1162 18.8284 11.9163C19.5786 12.7165 20 13.8017 20 14.9333C20 16.0649 19.5786 17.1502 18.8284 17.9503C18.0783 18.7505 17.0609 19.2 16 19.2C14.9391 19.2 13.9217 18.7505 13.1716 17.9503C12.4214 17.1502 12 16.0649 12 14.9333Z" fill="#185CFF"/>
</svg>
